<mxfile host="app.diagrams.net" modified="2024-07-11T23:52:21.759Z" agent="Mozilla/5.0 (Windows NT 10.0; Win64; x64) AppleWebKit/537.36 (KHTML, like Gecko) Chrome/126.0.0.0 Safari/537.36" etag="N4ScQW3Am_ytjvRzQmmO" version="24.6.5" type="github">
  <diagram name="Page-1" id="4Zf_f58BS-KpK_rqJ5uL">
    <mxGraphModel dx="880" dy="529" grid="1" gridSize="10" guides="1" tooltips="1" connect="1" arrows="1" fold="1" page="1" pageScale="1" pageWidth="850" pageHeight="1100" math="0" shadow="0">
      <root>
        <mxCell id="0" />
        <mxCell id="1" parent="0" />
        <mxCell id="75Ea4ljg7frC5PlCdshl-32" value="" style="ellipse;whiteSpace=wrap;html=1;" vertex="1" parent="1">
          <mxGeometry x="527" y="90" width="120" height="80" as="geometry" />
        </mxCell>
        <mxCell id="75Ea4ljg7frC5PlCdshl-1" value="client" style="swimlane;fontStyle=0;childLayout=stackLayout;horizontal=1;startSize=30;horizontalStack=0;resizeParent=1;resizeParentMax=0;resizeLast=0;collapsible=1;marginBottom=0;whiteSpace=wrap;html=1;align=center;textShadow=1;labelBackgroundColor=#9CAFFF;" vertex="1" parent="1">
          <mxGeometry x="10" y="10" width="150" height="300" as="geometry" />
        </mxCell>
        <mxCell id="75Ea4ljg7frC5PlCdshl-2" value="idclient" style="text;strokeColor=none;fillColor=none;align=center;verticalAlign=middle;spacingLeft=4;spacingRight=4;overflow=hidden;points=[[0,0.5],[1,0.5]];portConstraint=eastwest;rotatable=0;whiteSpace=wrap;html=1;" vertex="1" parent="75Ea4ljg7frC5PlCdshl-1">
          <mxGeometry y="30" width="150" height="30" as="geometry" />
        </mxCell>
        <mxCell id="75Ea4ljg7frC5PlCdshl-3" value="nom" style="text;strokeColor=none;fillColor=none;align=center;verticalAlign=middle;spacingLeft=4;spacingRight=4;overflow=hidden;points=[[0,0.5],[1,0.5]];portConstraint=eastwest;rotatable=0;whiteSpace=wrap;html=1;" vertex="1" parent="75Ea4ljg7frC5PlCdshl-1">
          <mxGeometry y="60" width="150" height="30" as="geometry" />
        </mxCell>
        <mxCell id="75Ea4ljg7frC5PlCdshl-6" value="postnom" style="text;strokeColor=none;fillColor=none;align=center;verticalAlign=middle;spacingLeft=4;spacingRight=4;overflow=hidden;points=[[0,0.5],[1,0.5]];portConstraint=eastwest;rotatable=0;whiteSpace=wrap;html=1;" vertex="1" parent="75Ea4ljg7frC5PlCdshl-1">
          <mxGeometry y="90" width="150" height="30" as="geometry" />
        </mxCell>
        <mxCell id="75Ea4ljg7frC5PlCdshl-7" value="prenom" style="text;strokeColor=none;fillColor=none;align=center;verticalAlign=middle;spacingLeft=4;spacingRight=4;overflow=hidden;points=[[0,0.5],[1,0.5]];portConstraint=eastwest;rotatable=0;whiteSpace=wrap;html=1;" vertex="1" parent="75Ea4ljg7frC5PlCdshl-1">
          <mxGeometry y="120" width="150" height="30" as="geometry" />
        </mxCell>
        <mxCell id="75Ea4ljg7frC5PlCdshl-8" value="address" style="text;strokeColor=none;fillColor=none;align=center;verticalAlign=middle;spacingLeft=4;spacingRight=4;overflow=hidden;points=[[0,0.5],[1,0.5]];portConstraint=eastwest;rotatable=0;whiteSpace=wrap;html=1;" vertex="1" parent="75Ea4ljg7frC5PlCdshl-1">
          <mxGeometry y="150" width="150" height="30" as="geometry" />
        </mxCell>
        <mxCell id="75Ea4ljg7frC5PlCdshl-9" value="genre" style="text;strokeColor=none;fillColor=none;align=center;verticalAlign=middle;spacingLeft=4;spacingRight=4;overflow=hidden;points=[[0,0.5],[1,0.5]];portConstraint=eastwest;rotatable=0;whiteSpace=wrap;html=1;" vertex="1" parent="75Ea4ljg7frC5PlCdshl-1">
          <mxGeometry y="180" width="150" height="30" as="geometry" />
        </mxCell>
        <mxCell id="75Ea4ljg7frC5PlCdshl-10" value="telephone" style="text;strokeColor=none;fillColor=none;align=center;verticalAlign=middle;spacingLeft=4;spacingRight=4;overflow=hidden;points=[[0,0.5],[1,0.5]];portConstraint=eastwest;rotatable=0;whiteSpace=wrap;html=1;" vertex="1" parent="75Ea4ljg7frC5PlCdshl-1">
          <mxGeometry y="210" width="150" height="30" as="geometry" />
        </mxCell>
        <mxCell id="75Ea4ljg7frC5PlCdshl-11" value="email" style="text;strokeColor=none;fillColor=none;align=center;verticalAlign=middle;spacingLeft=4;spacingRight=4;overflow=hidden;points=[[0,0.5],[1,0.5]];portConstraint=eastwest;rotatable=0;whiteSpace=wrap;html=1;" vertex="1" parent="75Ea4ljg7frC5PlCdshl-1">
          <mxGeometry y="240" width="150" height="30" as="geometry" />
        </mxCell>
        <mxCell id="75Ea4ljg7frC5PlCdshl-12" value="date_naissance" style="text;strokeColor=none;fillColor=none;align=center;verticalAlign=middle;spacingLeft=4;spacingRight=4;overflow=hidden;points=[[0,0.5],[1,0.5]];portConstraint=eastwest;rotatable=0;whiteSpace=wrap;html=1;" vertex="1" parent="75Ea4ljg7frC5PlCdshl-1">
          <mxGeometry y="270" width="150" height="30" as="geometry" />
        </mxCell>
        <mxCell id="75Ea4ljg7frC5PlCdshl-13" value="projet" style="swimlane;fontStyle=0;childLayout=stackLayout;horizontal=1;startSize=30;horizontalStack=0;resizeParent=1;resizeParentMax=0;resizeLast=0;collapsible=1;marginBottom=0;whiteSpace=wrap;html=1;labelBorderColor=none;textShadow=1;labelBackgroundColor=#FF3333;" vertex="1" parent="1">
          <mxGeometry x="350" y="55" width="140" height="240" as="geometry" />
        </mxCell>
        <mxCell id="75Ea4ljg7frC5PlCdshl-14" value="idprojet" style="text;strokeColor=none;fillColor=none;align=center;verticalAlign=middle;spacingLeft=4;spacingRight=4;overflow=hidden;points=[[0,0.5],[1,0.5]];portConstraint=eastwest;rotatable=0;whiteSpace=wrap;html=1;" vertex="1" parent="75Ea4ljg7frC5PlCdshl-13">
          <mxGeometry y="30" width="140" height="30" as="geometry" />
        </mxCell>
        <mxCell id="75Ea4ljg7frC5PlCdshl-15" value="# ref_client" style="text;strokeColor=none;fillColor=none;align=center;verticalAlign=middle;spacingLeft=4;spacingRight=4;overflow=hidden;points=[[0,0.5],[1,0.5]];portConstraint=eastwest;rotatable=0;whiteSpace=wrap;html=1;" vertex="1" parent="75Ea4ljg7frC5PlCdshl-13">
          <mxGeometry y="60" width="140" height="30" as="geometry" />
        </mxCell>
        <mxCell id="75Ea4ljg7frC5PlCdshl-16" value="designation" style="text;strokeColor=none;fillColor=none;align=center;verticalAlign=middle;spacingLeft=4;spacingRight=4;overflow=hidden;points=[[0,0.5],[1,0.5]];portConstraint=eastwest;rotatable=0;whiteSpace=wrap;html=1;" vertex="1" parent="75Ea4ljg7frC5PlCdshl-13">
          <mxGeometry y="90" width="140" height="30" as="geometry" />
        </mxCell>
        <mxCell id="75Ea4ljg7frC5PlCdshl-17" value="description" style="text;strokeColor=none;fillColor=none;align=center;verticalAlign=middle;spacingLeft=4;spacingRight=4;overflow=hidden;points=[[0,0.5],[1,0.5]];portConstraint=eastwest;rotatable=0;whiteSpace=wrap;html=1;" vertex="1" parent="75Ea4ljg7frC5PlCdshl-13">
          <mxGeometry y="120" width="140" height="30" as="geometry" />
        </mxCell>
        <mxCell id="75Ea4ljg7frC5PlCdshl-18" value="date_debut" style="text;strokeColor=none;fillColor=none;align=center;verticalAlign=middle;spacingLeft=4;spacingRight=4;overflow=hidden;points=[[0,0.5],[1,0.5]];portConstraint=eastwest;rotatable=0;whiteSpace=wrap;html=1;" vertex="1" parent="75Ea4ljg7frC5PlCdshl-13">
          <mxGeometry y="150" width="140" height="30" as="geometry" />
        </mxCell>
        <mxCell id="75Ea4ljg7frC5PlCdshl-19" value="date_fin" style="text;strokeColor=none;fillColor=none;align=center;verticalAlign=middle;spacingLeft=4;spacingRight=4;overflow=hidden;points=[[0,0.5],[1,0.5]];portConstraint=eastwest;rotatable=0;whiteSpace=wrap;html=1;" vertex="1" parent="75Ea4ljg7frC5PlCdshl-13">
          <mxGeometry y="180" width="140" height="30" as="geometry" />
        </mxCell>
        <mxCell id="75Ea4ljg7frC5PlCdshl-49" value="# idagent" style="text;strokeColor=none;fillColor=none;align=center;verticalAlign=middle;spacingLeft=4;spacingRight=4;overflow=hidden;points=[[0,0.5],[1,0.5]];portConstraint=eastwest;rotatable=0;whiteSpace=wrap;html=1;" vertex="1" parent="75Ea4ljg7frC5PlCdshl-13">
          <mxGeometry y="210" width="140" height="30" as="geometry" />
        </mxCell>
        <mxCell id="75Ea4ljg7frC5PlCdshl-20" value="" style="ellipse;whiteSpace=wrap;html=1;" vertex="1" parent="1">
          <mxGeometry x="190" y="90" width="120" height="80" as="geometry" />
        </mxCell>
        <mxCell id="75Ea4ljg7frC5PlCdshl-22" value="" style="endArrow=classic;html=1;rounded=0;exitX=1;exitY=0.5;exitDx=0;exitDy=0;entryX=-0.021;entryY=0.3;entryDx=0;entryDy=0;entryPerimeter=0;strokeColor=#FFCC99;" edge="1" parent="1" source="75Ea4ljg7frC5PlCdshl-2" target="75Ea4ljg7frC5PlCdshl-15">
          <mxGeometry width="50" height="50" relative="1" as="geometry">
            <mxPoint x="190" y="180" as="sourcePoint" />
            <mxPoint x="260" y="185" as="targetPoint" />
            <Array as="points">
              <mxPoint x="190" y="124" />
            </Array>
          </mxGeometry>
        </mxCell>
        <mxCell id="75Ea4ljg7frC5PlCdshl-23" value="tache" style="swimlane;fontStyle=0;childLayout=stackLayout;horizontal=1;startSize=30;horizontalStack=0;resizeParent=1;resizeParentMax=0;resizeLast=0;collapsible=1;marginBottom=0;whiteSpace=wrap;html=1;align=center;labelBackgroundColor=#B9E0A5;labelBorderColor=none;textShadow=1;" vertex="1" parent="1">
          <mxGeometry x="690" y="55" width="140" height="240" as="geometry" />
        </mxCell>
        <mxCell id="75Ea4ljg7frC5PlCdshl-24" value="idtache" style="text;strokeColor=none;fillColor=none;align=center;verticalAlign=middle;spacingLeft=4;spacingRight=4;overflow=hidden;points=[[0,0.5],[1,0.5]];portConstraint=eastwest;rotatable=0;whiteSpace=wrap;html=1;" vertex="1" parent="75Ea4ljg7frC5PlCdshl-23">
          <mxGeometry y="30" width="140" height="30" as="geometry" />
        </mxCell>
        <mxCell id="75Ea4ljg7frC5PlCdshl-25" value="# ref_projet" style="text;strokeColor=none;fillColor=none;align=center;verticalAlign=middle;spacingLeft=4;spacingRight=4;overflow=hidden;points=[[0,0.5],[1,0.5]];portConstraint=eastwest;rotatable=0;whiteSpace=wrap;html=1;" vertex="1" parent="75Ea4ljg7frC5PlCdshl-23">
          <mxGeometry y="60" width="140" height="30" as="geometry" />
        </mxCell>
        <mxCell id="75Ea4ljg7frC5PlCdshl-26" value="designation" style="text;strokeColor=none;fillColor=none;align=center;verticalAlign=middle;spacingLeft=4;spacingRight=4;overflow=hidden;points=[[0,0.5],[1,0.5]];portConstraint=eastwest;rotatable=0;whiteSpace=wrap;html=1;" vertex="1" parent="75Ea4ljg7frC5PlCdshl-23">
          <mxGeometry y="90" width="140" height="30" as="geometry" />
        </mxCell>
        <mxCell id="75Ea4ljg7frC5PlCdshl-27" value="date_debut" style="text;strokeColor=none;fillColor=none;align=center;verticalAlign=middle;spacingLeft=4;spacingRight=4;overflow=hidden;points=[[0,0.5],[1,0.5]];portConstraint=eastwest;rotatable=0;whiteSpace=wrap;html=1;" vertex="1" parent="75Ea4ljg7frC5PlCdshl-23">
          <mxGeometry y="120" width="140" height="30" as="geometry" />
        </mxCell>
        <mxCell id="75Ea4ljg7frC5PlCdshl-30" value="date_fin" style="text;strokeColor=none;fillColor=none;align=center;verticalAlign=middle;spacingLeft=4;spacingRight=4;overflow=hidden;points=[[0,0.5],[1,0.5]];portConstraint=eastwest;rotatable=0;whiteSpace=wrap;html=1;" vertex="1" parent="75Ea4ljg7frC5PlCdshl-23">
          <mxGeometry y="150" width="140" height="30" as="geometry" />
        </mxCell>
        <mxCell id="75Ea4ljg7frC5PlCdshl-28" value="cout" style="text;strokeColor=none;fillColor=none;align=center;verticalAlign=middle;spacingLeft=4;spacingRight=4;overflow=hidden;points=[[0,0.5],[1,0.5]];portConstraint=eastwest;rotatable=0;whiteSpace=wrap;html=1;" vertex="1" parent="75Ea4ljg7frC5PlCdshl-23">
          <mxGeometry y="180" width="140" height="30" as="geometry" />
        </mxCell>
        <mxCell id="75Ea4ljg7frC5PlCdshl-31" value="heure" style="text;strokeColor=none;fillColor=none;align=center;verticalAlign=middle;spacingLeft=4;spacingRight=4;overflow=hidden;points=[[0,0.5],[1,0.5]];portConstraint=eastwest;rotatable=0;whiteSpace=wrap;html=1;fontFamily=Verdana;labelPosition=center;verticalLabelPosition=middle;" vertex="1" parent="75Ea4ljg7frC5PlCdshl-23">
          <mxGeometry y="210" width="140" height="30" as="geometry" />
        </mxCell>
        <mxCell id="75Ea4ljg7frC5PlCdshl-29" value="commander" style="text;html=1;align=center;verticalAlign=middle;whiteSpace=wrap;rounded=0;" vertex="1" parent="1">
          <mxGeometry x="220" y="100" width="60" height="30" as="geometry" />
        </mxCell>
        <mxCell id="75Ea4ljg7frC5PlCdshl-34" value="" style="endArrow=classic;html=1;rounded=0;exitX=0.986;exitY=0.3;exitDx=0;exitDy=0;exitPerimeter=0;entryX=0;entryY=0.3;entryDx=0;entryDy=0;entryPerimeter=0;strokeColor=#FF3333;" edge="1" parent="1" source="75Ea4ljg7frC5PlCdshl-15" target="75Ea4ljg7frC5PlCdshl-25">
          <mxGeometry width="50" height="50" relative="1" as="geometry">
            <mxPoint x="493" y="190" as="sourcePoint" />
            <mxPoint x="680" y="190" as="targetPoint" />
            <Array as="points" />
          </mxGeometry>
        </mxCell>
        <mxCell id="75Ea4ljg7frC5PlCdshl-35" value="possede" style="text;html=1;align=center;verticalAlign=middle;whiteSpace=wrap;rounded=0;" vertex="1" parent="1">
          <mxGeometry x="557" y="96" width="60" height="30" as="geometry" />
        </mxCell>
        <mxCell id="75Ea4ljg7frC5PlCdshl-36" value="agent" style="swimlane;fontStyle=0;childLayout=stackLayout;horizontal=1;startSize=30;horizontalStack=0;resizeParent=1;resizeParentMax=0;resizeLast=0;collapsible=1;marginBottom=0;whiteSpace=wrap;html=1;labelBorderColor=none;labelBackgroundColor=#FFCCE6;textShadow=1;" vertex="1" parent="1">
          <mxGeometry x="670" y="430" width="140" height="390" as="geometry" />
        </mxCell>
        <mxCell id="75Ea4ljg7frC5PlCdshl-37" value="idagent" style="text;strokeColor=none;fillColor=none;align=center;verticalAlign=middle;spacingLeft=4;spacingRight=4;overflow=hidden;points=[[0,0.5],[1,0.5]];portConstraint=eastwest;rotatable=0;whiteSpace=wrap;html=1;" vertex="1" parent="75Ea4ljg7frC5PlCdshl-36">
          <mxGeometry y="30" width="140" height="30" as="geometry" />
        </mxCell>
        <mxCell id="75Ea4ljg7frC5PlCdshl-38" value="nom" style="text;strokeColor=none;fillColor=none;align=center;verticalAlign=middle;spacingLeft=4;spacingRight=4;overflow=hidden;points=[[0,0.5],[1,0.5]];portConstraint=eastwest;rotatable=0;whiteSpace=wrap;html=1;" vertex="1" parent="75Ea4ljg7frC5PlCdshl-36">
          <mxGeometry y="60" width="140" height="30" as="geometry" />
        </mxCell>
        <mxCell id="75Ea4ljg7frC5PlCdshl-39" value="postnom" style="text;strokeColor=none;fillColor=none;align=center;verticalAlign=middle;spacingLeft=4;spacingRight=4;overflow=hidden;points=[[0,0.5],[1,0.5]];portConstraint=eastwest;rotatable=0;whiteSpace=wrap;html=1;" vertex="1" parent="75Ea4ljg7frC5PlCdshl-36">
          <mxGeometry y="90" width="140" height="30" as="geometry" />
        </mxCell>
        <mxCell id="75Ea4ljg7frC5PlCdshl-40" value="prenom" style="text;strokeColor=none;fillColor=none;align=center;verticalAlign=middle;spacingLeft=4;spacingRight=4;overflow=hidden;points=[[0,0.5],[1,0.5]];portConstraint=eastwest;rotatable=0;whiteSpace=wrap;html=1;" vertex="1" parent="75Ea4ljg7frC5PlCdshl-36">
          <mxGeometry y="120" width="140" height="30" as="geometry" />
        </mxCell>
        <mxCell id="75Ea4ljg7frC5PlCdshl-41" value="address" style="text;strokeColor=none;fillColor=none;align=center;verticalAlign=middle;spacingLeft=4;spacingRight=4;overflow=hidden;points=[[0,0.5],[1,0.5]];portConstraint=eastwest;rotatable=0;whiteSpace=wrap;html=1;" vertex="1" parent="75Ea4ljg7frC5PlCdshl-36">
          <mxGeometry y="150" width="140" height="30" as="geometry" />
        </mxCell>
        <mxCell id="75Ea4ljg7frC5PlCdshl-42" value="genre" style="text;strokeColor=none;fillColor=none;align=center;verticalAlign=middle;spacingLeft=4;spacingRight=4;overflow=hidden;points=[[0,0.5],[1,0.5]];portConstraint=eastwest;rotatable=0;whiteSpace=wrap;html=1;" vertex="1" parent="75Ea4ljg7frC5PlCdshl-36">
          <mxGeometry y="180" width="140" height="30" as="geometry" />
        </mxCell>
        <mxCell id="75Ea4ljg7frC5PlCdshl-43" value="telephone" style="text;strokeColor=none;fillColor=none;align=center;verticalAlign=middle;spacingLeft=4;spacingRight=4;overflow=hidden;points=[[0,0.5],[1,0.5]];portConstraint=eastwest;rotatable=0;whiteSpace=wrap;html=1;" vertex="1" parent="75Ea4ljg7frC5PlCdshl-36">
          <mxGeometry y="210" width="140" height="30" as="geometry" />
        </mxCell>
        <mxCell id="75Ea4ljg7frC5PlCdshl-44" value="email" style="text;strokeColor=none;fillColor=none;align=center;verticalAlign=middle;spacingLeft=4;spacingRight=4;overflow=hidden;points=[[0,0.5],[1,0.5]];portConstraint=eastwest;rotatable=0;whiteSpace=wrap;html=1;" vertex="1" parent="75Ea4ljg7frC5PlCdshl-36">
          <mxGeometry y="240" width="140" height="30" as="geometry" />
        </mxCell>
        <mxCell id="75Ea4ljg7frC5PlCdshl-45" value="photo" style="text;strokeColor=none;fillColor=none;align=center;verticalAlign=middle;spacingLeft=4;spacingRight=4;overflow=hidden;points=[[0,0.5],[1,0.5]];portConstraint=eastwest;rotatable=0;whiteSpace=wrap;html=1;" vertex="1" parent="75Ea4ljg7frC5PlCdshl-36">
          <mxGeometry y="270" width="140" height="30" as="geometry" />
        </mxCell>
        <mxCell id="75Ea4ljg7frC5PlCdshl-46" value="date_naissance" style="text;strokeColor=none;fillColor=none;align=center;verticalAlign=middle;spacingLeft=4;spacingRight=4;overflow=hidden;points=[[0,0.5],[1,0.5]];portConstraint=eastwest;rotatable=0;whiteSpace=wrap;html=1;" vertex="1" parent="75Ea4ljg7frC5PlCdshl-36">
          <mxGeometry y="300" width="140" height="30" as="geometry" />
        </mxCell>
        <mxCell id="75Ea4ljg7frC5PlCdshl-47" value="etat_civil" style="text;strokeColor=none;fillColor=none;align=center;verticalAlign=middle;spacingLeft=4;spacingRight=4;overflow=hidden;points=[[0,0.5],[1,0.5]];portConstraint=eastwest;rotatable=0;whiteSpace=wrap;html=1;" vertex="1" parent="75Ea4ljg7frC5PlCdshl-36">
          <mxGeometry y="330" width="140" height="30" as="geometry" />
        </mxCell>
        <mxCell id="75Ea4ljg7frC5PlCdshl-48" value="type_agent" style="text;strokeColor=none;fillColor=none;align=center;verticalAlign=middle;spacingLeft=4;spacingRight=4;overflow=hidden;points=[[0,0.5],[1,0.5]];portConstraint=eastwest;rotatable=0;whiteSpace=wrap;html=1;" vertex="1" parent="75Ea4ljg7frC5PlCdshl-36">
          <mxGeometry y="360" width="140" height="30" as="geometry" />
        </mxCell>
        <mxCell id="75Ea4ljg7frC5PlCdshl-50" value="affectation_tache" style="swimlane;fontStyle=0;childLayout=stackLayout;horizontal=1;startSize=30;horizontalStack=0;resizeParent=1;resizeParentMax=0;resizeLast=0;collapsible=1;marginBottom=0;whiteSpace=wrap;html=1;textShadow=1;labelBorderColor=none;labelBackgroundColor=#FFB570;" vertex="1" parent="1">
          <mxGeometry x="360" y="400" width="140" height="150" as="geometry" />
        </mxCell>
        <mxCell id="75Ea4ljg7frC5PlCdshl-51" value="idaffect" style="text;strokeColor=none;fillColor=none;align=center;verticalAlign=middle;spacingLeft=4;spacingRight=4;overflow=hidden;points=[[0,0.5],[1,0.5]];portConstraint=eastwest;rotatable=0;whiteSpace=wrap;html=1;" vertex="1" parent="75Ea4ljg7frC5PlCdshl-50">
          <mxGeometry y="30" width="140" height="30" as="geometry" />
        </mxCell>
        <mxCell id="75Ea4ljg7frC5PlCdshl-52" value="# ref_agent" style="text;strokeColor=none;fillColor=none;align=center;verticalAlign=middle;spacingLeft=4;spacingRight=4;overflow=hidden;points=[[0,0.5],[1,0.5]];portConstraint=eastwest;rotatable=0;whiteSpace=wrap;html=1;" vertex="1" parent="75Ea4ljg7frC5PlCdshl-50">
          <mxGeometry y="60" width="140" height="30" as="geometry" />
        </mxCell>
        <mxCell id="75Ea4ljg7frC5PlCdshl-53" value="# ref_tache" style="text;strokeColor=none;fillColor=none;align=center;verticalAlign=middle;spacingLeft=4;spacingRight=4;overflow=hidden;points=[[0,0.5],[1,0.5]];portConstraint=eastwest;rotatable=0;whiteSpace=wrap;html=1;" vertex="1" parent="75Ea4ljg7frC5PlCdshl-50">
          <mxGeometry y="90" width="140" height="30" as="geometry" />
        </mxCell>
        <mxCell id="75Ea4ljg7frC5PlCdshl-54" value="statut" style="text;strokeColor=none;fillColor=none;align=center;verticalAlign=middle;spacingLeft=4;spacingRight=4;overflow=hidden;points=[[0,0.5],[1,0.5]];portConstraint=eastwest;rotatable=0;whiteSpace=wrap;html=1;" vertex="1" parent="75Ea4ljg7frC5PlCdshl-50">
          <mxGeometry y="120" width="140" height="30" as="geometry" />
        </mxCell>
        <mxCell id="75Ea4ljg7frC5PlCdshl-56" value="" style="endArrow=classic;html=1;rounded=0;exitX=0;exitY=0.5;exitDx=0;exitDy=0;entryX=0.993;entryY=0.14;entryDx=0;entryDy=0;entryPerimeter=0;fontColor=#000000;labelBackgroundColor=none;labelBorderColor=none;textShadow=0;strokeColor=#00FF00;" edge="1" parent="1" source="75Ea4ljg7frC5PlCdshl-30" target="75Ea4ljg7frC5PlCdshl-50">
          <mxGeometry width="50" height="50" relative="1" as="geometry">
            <mxPoint x="567" y="280" as="sourcePoint" />
            <mxPoint x="640" y="446" as="targetPoint" />
            <Array as="points">
              <mxPoint x="580" y="220" />
              <mxPoint x="580" y="320" />
              <mxPoint x="580" y="420" />
            </Array>
          </mxGeometry>
        </mxCell>
        <mxCell id="75Ea4ljg7frC5PlCdshl-55" value="" style="ellipse;whiteSpace=wrap;html=1;strokeColor=#00FF00;" vertex="1" parent="1">
          <mxGeometry x="527" y="320" width="90" height="50" as="geometry" />
        </mxCell>
        <mxCell id="75Ea4ljg7frC5PlCdshl-57" value="" style="endArrow=none;html=1;rounded=0;entryX=1;entryY=0.5;entryDx=0;entryDy=0;strokeColor=#00FF00;" edge="1" parent="1" target="75Ea4ljg7frC5PlCdshl-55">
          <mxGeometry width="50" height="50" relative="1" as="geometry">
            <mxPoint x="527" y="344.5" as="sourcePoint" />
            <mxPoint x="597" y="344.5" as="targetPoint" />
          </mxGeometry>
        </mxCell>
        <mxCell id="75Ea4ljg7frC5PlCdshl-58" value="" style="ellipse;whiteSpace=wrap;html=1;rotation=0;" vertex="1" parent="1">
          <mxGeometry x="538" y="455" width="90" height="45" as="geometry" />
        </mxCell>
        <mxCell id="75Ea4ljg7frC5PlCdshl-59" value="" style="endArrow=classic;html=1;rounded=0;exitX=0;exitY=0.5;exitDx=0;exitDy=0;entryX=1;entryY=0.5;entryDx=0;entryDy=0;strokeColor=#A680B8;" edge="1" parent="1" source="75Ea4ljg7frC5PlCdshl-37" target="75Ea4ljg7frC5PlCdshl-52">
          <mxGeometry width="50" height="50" relative="1" as="geometry">
            <mxPoint x="490" y="400" as="sourcePoint" />
            <mxPoint x="540" y="350" as="targetPoint" />
            <Array as="points" />
          </mxGeometry>
        </mxCell>
        <mxCell id="75Ea4ljg7frC5PlCdshl-60" value="payement" style="swimlane;fontStyle=0;childLayout=stackLayout;horizontal=1;startSize=30;horizontalStack=0;resizeParent=1;resizeParentMax=0;resizeLast=0;collapsible=1;marginBottom=0;whiteSpace=wrap;html=1;labelBorderColor=none;labelBackgroundColor=#00FF80;textShadow=1;" vertex="1" parent="1">
          <mxGeometry x="50" y="400" width="140" height="180" as="geometry" />
        </mxCell>
        <mxCell id="75Ea4ljg7frC5PlCdshl-61" value="idpay" style="text;strokeColor=none;fillColor=none;align=center;verticalAlign=middle;spacingLeft=4;spacingRight=4;overflow=hidden;points=[[0,0.5],[1,0.5]];portConstraint=eastwest;rotatable=0;whiteSpace=wrap;html=1;" vertex="1" parent="75Ea4ljg7frC5PlCdshl-60">
          <mxGeometry y="30" width="140" height="30" as="geometry" />
        </mxCell>
        <mxCell id="75Ea4ljg7frC5PlCdshl-62" value="# ref_projet" style="text;strokeColor=none;fillColor=none;align=center;verticalAlign=middle;spacingLeft=4;spacingRight=4;overflow=hidden;points=[[0,0.5],[1,0.5]];portConstraint=eastwest;rotatable=0;whiteSpace=wrap;html=1;" vertex="1" parent="75Ea4ljg7frC5PlCdshl-60">
          <mxGeometry y="60" width="140" height="30" as="geometry" />
        </mxCell>
        <mxCell id="75Ea4ljg7frC5PlCdshl-63" value="# ref_client" style="text;strokeColor=none;fillColor=none;align=center;verticalAlign=middle;spacingLeft=4;spacingRight=4;overflow=hidden;points=[[0,0.5],[1,0.5]];portConstraint=eastwest;rotatable=0;whiteSpace=wrap;html=1;" vertex="1" parent="75Ea4ljg7frC5PlCdshl-60">
          <mxGeometry y="90" width="140" height="30" as="geometry" />
        </mxCell>
        <mxCell id="75Ea4ljg7frC5PlCdshl-64" value="montant" style="text;strokeColor=none;fillColor=none;align=center;verticalAlign=middle;spacingLeft=4;spacingRight=4;overflow=hidden;points=[[0,0.5],[1,0.5]];portConstraint=eastwest;rotatable=0;whiteSpace=wrap;html=1;" vertex="1" parent="75Ea4ljg7frC5PlCdshl-60">
          <mxGeometry y="120" width="140" height="30" as="geometry" />
        </mxCell>
        <mxCell id="75Ea4ljg7frC5PlCdshl-65" value="date" style="text;strokeColor=none;fillColor=none;align=center;verticalAlign=middle;spacingLeft=4;spacingRight=4;overflow=hidden;points=[[0,0.5],[1,0.5]];portConstraint=eastwest;rotatable=0;whiteSpace=wrap;html=1;" vertex="1" parent="75Ea4ljg7frC5PlCdshl-60">
          <mxGeometry y="150" width="140" height="30" as="geometry" />
        </mxCell>
        <mxCell id="75Ea4ljg7frC5PlCdshl-67" value="" style="endArrow=classic;html=1;rounded=0;exitX=0;exitY=0.5;exitDx=0;exitDy=0;entryX=0.986;entryY=0.233;entryDx=0;entryDy=0;entryPerimeter=0;strokeColor=#A680B8;" edge="1" parent="1" source="75Ea4ljg7frC5PlCdshl-18" target="75Ea4ljg7frC5PlCdshl-61">
          <mxGeometry width="50" height="50" relative="1" as="geometry">
            <mxPoint x="230" y="280" as="sourcePoint" />
            <mxPoint x="240" y="460" as="targetPoint" />
            <Array as="points">
              <mxPoint x="240" y="220" />
              <mxPoint x="240" y="320" />
              <mxPoint x="240" y="370" />
              <mxPoint x="240" y="440" />
            </Array>
          </mxGeometry>
        </mxCell>
        <mxCell id="75Ea4ljg7frC5PlCdshl-66" value="" style="ellipse;whiteSpace=wrap;html=1;" vertex="1" parent="1">
          <mxGeometry x="190" y="320" width="100" height="55" as="geometry" />
        </mxCell>
        <mxCell id="75Ea4ljg7frC5PlCdshl-68" value="" style="endArrow=none;html=1;rounded=0;exitX=0;exitY=0.5;exitDx=0;exitDy=0;entryX=1;entryY=0.5;entryDx=0;entryDy=0;" edge="1" parent="1" source="75Ea4ljg7frC5PlCdshl-66" target="75Ea4ljg7frC5PlCdshl-66">
          <mxGeometry width="50" height="50" relative="1" as="geometry">
            <mxPoint x="200" y="390" as="sourcePoint" />
            <mxPoint x="250" y="340" as="targetPoint" />
          </mxGeometry>
        </mxCell>
        <mxCell id="75Ea4ljg7frC5PlCdshl-69" value="devis" style="swimlane;fontStyle=0;childLayout=stackLayout;horizontal=1;startSize=30;horizontalStack=0;resizeParent=1;resizeParentMax=0;resizeLast=0;collapsible=1;marginBottom=0;whiteSpace=wrap;html=1;labelBorderColor=none;textShadow=1;labelBackgroundColor=#FF66B3;" vertex="1" parent="1">
          <mxGeometry x="30" y="640" width="140" height="120" as="geometry" />
        </mxCell>
        <mxCell id="75Ea4ljg7frC5PlCdshl-70" value="iddevis" style="text;strokeColor=none;fillColor=none;align=center;verticalAlign=middle;spacingLeft=4;spacingRight=4;overflow=hidden;points=[[0,0.5],[1,0.5]];portConstraint=eastwest;rotatable=0;whiteSpace=wrap;html=1;" vertex="1" parent="75Ea4ljg7frC5PlCdshl-69">
          <mxGeometry y="30" width="140" height="30" as="geometry" />
        </mxCell>
        <mxCell id="75Ea4ljg7frC5PlCdshl-71" value="# ref_projet" style="text;strokeColor=none;fillColor=none;align=center;verticalAlign=middle;spacingLeft=4;spacingRight=4;overflow=hidden;points=[[0,0.5],[1,0.5]];portConstraint=eastwest;rotatable=0;whiteSpace=wrap;html=1;" vertex="1" parent="75Ea4ljg7frC5PlCdshl-69">
          <mxGeometry y="60" width="140" height="30" as="geometry" />
        </mxCell>
        <mxCell id="75Ea4ljg7frC5PlCdshl-72" value="# ref_materiel" style="text;strokeColor=none;fillColor=none;align=center;verticalAlign=middle;spacingLeft=4;spacingRight=4;overflow=hidden;points=[[0,0.5],[1,0.5]];portConstraint=eastwest;rotatable=0;whiteSpace=wrap;html=1;" vertex="1" parent="75Ea4ljg7frC5PlCdshl-69">
          <mxGeometry y="90" width="140" height="30" as="geometry" />
        </mxCell>
        <mxCell id="75Ea4ljg7frC5PlCdshl-73" value="" style="endArrow=classic;html=1;rounded=0;exitX=-0.007;exitY=0.3;exitDx=0;exitDy=0;exitPerimeter=0;entryX=1;entryY=0.167;entryDx=0;entryDy=0;entryPerimeter=0;" edge="1" parent="1" source="75Ea4ljg7frC5PlCdshl-49" target="75Ea4ljg7frC5PlCdshl-69">
          <mxGeometry width="50" height="50" relative="1" as="geometry">
            <mxPoint x="310" y="390" as="sourcePoint" />
            <mxPoint x="300" y="670" as="targetPoint" />
            <Array as="points">
              <mxPoint x="300" y="274" />
              <mxPoint x="300" y="500" />
              <mxPoint x="300" y="550" />
              <mxPoint x="300" y="660" />
            </Array>
          </mxGeometry>
        </mxCell>
        <mxCell id="75Ea4ljg7frC5PlCdshl-74" value="" style="ellipse;whiteSpace=wrap;html=1;" vertex="1" parent="1">
          <mxGeometry x="240" y="500" width="110" height="50" as="geometry" />
        </mxCell>
        <mxCell id="75Ea4ljg7frC5PlCdshl-75" value="" style="endArrow=none;html=1;rounded=0;exitX=0;exitY=0.5;exitDx=0;exitDy=0;entryX=1;entryY=0.5;entryDx=0;entryDy=0;" edge="1" parent="1" source="75Ea4ljg7frC5PlCdshl-74" target="75Ea4ljg7frC5PlCdshl-74">
          <mxGeometry width="50" height="50" relative="1" as="geometry">
            <mxPoint x="260" y="550" as="sourcePoint" />
            <mxPoint x="310" y="500" as="targetPoint" />
          </mxGeometry>
        </mxCell>
        <mxCell id="75Ea4ljg7frC5PlCdshl-76" value="materiel" style="swimlane;fontStyle=0;childLayout=stackLayout;horizontal=1;startSize=30;horizontalStack=0;resizeParent=1;resizeParentMax=0;resizeLast=0;collapsible=1;marginBottom=0;whiteSpace=wrap;html=1;labelBackgroundColor=#CC99FF;textShadow=1;" vertex="1" parent="1">
          <mxGeometry x="398" y="685" width="140" height="150" as="geometry" />
        </mxCell>
        <mxCell id="75Ea4ljg7frC5PlCdshl-77" value="idmateriel" style="text;strokeColor=none;fillColor=none;align=center;verticalAlign=middle;spacingLeft=4;spacingRight=4;overflow=hidden;points=[[0,0.5],[1,0.5]];portConstraint=eastwest;rotatable=0;whiteSpace=wrap;html=1;" vertex="1" parent="75Ea4ljg7frC5PlCdshl-76">
          <mxGeometry y="30" width="140" height="30" as="geometry" />
        </mxCell>
        <mxCell id="75Ea4ljg7frC5PlCdshl-78" value="designation" style="text;strokeColor=none;fillColor=none;align=center;verticalAlign=middle;spacingLeft=4;spacingRight=4;overflow=hidden;points=[[0,0.5],[1,0.5]];portConstraint=eastwest;rotatable=0;whiteSpace=wrap;html=1;" vertex="1" parent="75Ea4ljg7frC5PlCdshl-76">
          <mxGeometry y="60" width="140" height="30" as="geometry" />
        </mxCell>
        <mxCell id="75Ea4ljg7frC5PlCdshl-79" value="description" style="text;strokeColor=none;fillColor=none;align=center;verticalAlign=middle;spacingLeft=4;spacingRight=4;overflow=hidden;points=[[0,0.5],[1,0.5]];portConstraint=eastwest;rotatable=0;whiteSpace=wrap;html=1;" vertex="1" parent="75Ea4ljg7frC5PlCdshl-76">
          <mxGeometry y="90" width="140" height="30" as="geometry" />
        </mxCell>
        <mxCell id="75Ea4ljg7frC5PlCdshl-80" value="prix" style="text;strokeColor=none;fillColor=none;align=center;verticalAlign=middle;spacingLeft=4;spacingRight=4;overflow=hidden;points=[[0,0.5],[1,0.5]];portConstraint=eastwest;rotatable=0;whiteSpace=wrap;html=1;" vertex="1" parent="75Ea4ljg7frC5PlCdshl-76">
          <mxGeometry y="120" width="140" height="30" as="geometry" />
        </mxCell>
        <mxCell id="75Ea4ljg7frC5PlCdshl-81" value="" style="ellipse;whiteSpace=wrap;html=1;" vertex="1" parent="1">
          <mxGeometry x="222" y="707" width="110" height="50" as="geometry" />
        </mxCell>
        <mxCell id="75Ea4ljg7frC5PlCdshl-82" value="" style="endArrow=classic;html=1;rounded=0;exitX=1.014;exitY=0;exitDx=0;exitDy=0;exitPerimeter=0;entryX=0;entryY=0.5;entryDx=0;entryDy=0;" edge="1" parent="1" source="75Ea4ljg7frC5PlCdshl-72" target="75Ea4ljg7frC5PlCdshl-77">
          <mxGeometry width="50" height="50" relative="1" as="geometry">
            <mxPoint x="130" y="860" as="sourcePoint" />
            <mxPoint x="180" y="810" as="targetPoint" />
          </mxGeometry>
        </mxCell>
        <mxCell id="75Ea4ljg7frC5PlCdshl-83" value="entetesortie" style="swimlane;fontStyle=0;childLayout=stackLayout;horizontal=1;startSize=30;horizontalStack=0;resizeParent=1;resizeParentMax=0;resizeLast=0;collapsible=1;marginBottom=0;whiteSpace=wrap;html=1;labelBackgroundColor=#999900;textShadow=1;" vertex="1" parent="1">
          <mxGeometry x="280" y="930" width="140" height="120" as="geometry" />
        </mxCell>
        <mxCell id="75Ea4ljg7frC5PlCdshl-84" value="idettsrt" style="text;strokeColor=none;fillColor=none;align=left;verticalAlign=middle;spacingLeft=4;spacingRight=4;overflow=hidden;points=[[0,0.5],[1,0.5]];portConstraint=eastwest;rotatable=0;whiteSpace=wrap;html=1;" vertex="1" parent="75Ea4ljg7frC5PlCdshl-83">
          <mxGeometry y="30" width="140" height="30" as="geometry" />
        </mxCell>
        <mxCell id="75Ea4ljg7frC5PlCdshl-85" value="date" style="text;strokeColor=none;fillColor=none;align=left;verticalAlign=middle;spacingLeft=4;spacingRight=4;overflow=hidden;points=[[0,0.5],[1,0.5]];portConstraint=eastwest;rotatable=0;whiteSpace=wrap;html=1;" vertex="1" parent="75Ea4ljg7frC5PlCdshl-83">
          <mxGeometry y="60" width="140" height="30" as="geometry" />
        </mxCell>
        <mxCell id="75Ea4ljg7frC5PlCdshl-86" value="# ref_...." style="text;strokeColor=none;fillColor=none;align=left;verticalAlign=middle;spacingLeft=4;spacingRight=4;overflow=hidden;points=[[0,0.5],[1,0.5]];portConstraint=eastwest;rotatable=0;whiteSpace=wrap;html=1;" vertex="1" parent="75Ea4ljg7frC5PlCdshl-83">
          <mxGeometry y="90" width="140" height="30" as="geometry" />
        </mxCell>
        <mxCell id="75Ea4ljg7frC5PlCdshl-87" value="detailsortie" style="swimlane;fontStyle=0;childLayout=stackLayout;horizontal=1;startSize=30;horizontalStack=0;resizeParent=1;resizeParentMax=0;resizeLast=0;collapsible=1;marginBottom=0;whiteSpace=wrap;html=1;labelBackgroundColor=#FF8000;textShadow=1;" vertex="1" parent="1">
          <mxGeometry y="900" width="140" height="180" as="geometry" />
        </mxCell>
        <mxCell id="75Ea4ljg7frC5PlCdshl-88" value="iddtlsrt" style="text;strokeColor=none;fillColor=none;align=left;verticalAlign=middle;spacingLeft=4;spacingRight=4;overflow=hidden;points=[[0,0.5],[1,0.5]];portConstraint=eastwest;rotatable=0;whiteSpace=wrap;html=1;" vertex="1" parent="75Ea4ljg7frC5PlCdshl-87">
          <mxGeometry y="30" width="140" height="30" as="geometry" />
        </mxCell>
        <mxCell id="75Ea4ljg7frC5PlCdshl-89" value="# ref_entetesortie" style="text;strokeColor=none;fillColor=none;align=left;verticalAlign=middle;spacingLeft=4;spacingRight=4;overflow=hidden;points=[[0,0.5],[1,0.5]];portConstraint=eastwest;rotatable=0;whiteSpace=wrap;html=1;" vertex="1" parent="75Ea4ljg7frC5PlCdshl-87">
          <mxGeometry y="60" width="140" height="30" as="geometry" />
        </mxCell>
        <mxCell id="75Ea4ljg7frC5PlCdshl-101" value="# ref_materiel" style="text;strokeColor=none;fillColor=none;align=left;verticalAlign=middle;spacingLeft=4;spacingRight=4;overflow=hidden;points=[[0,0.5],[1,0.5]];portConstraint=eastwest;rotatable=0;whiteSpace=wrap;html=1;" vertex="1" parent="75Ea4ljg7frC5PlCdshl-87">
          <mxGeometry y="90" width="140" height="30" as="geometry" />
        </mxCell>
        <mxCell id="75Ea4ljg7frC5PlCdshl-102" value="qte" style="text;strokeColor=none;fillColor=none;align=left;verticalAlign=middle;spacingLeft=4;spacingRight=4;overflow=hidden;points=[[0,0.5],[1,0.5]];portConstraint=eastwest;rotatable=0;whiteSpace=wrap;html=1;" vertex="1" parent="75Ea4ljg7frC5PlCdshl-87">
          <mxGeometry y="120" width="140" height="30" as="geometry" />
        </mxCell>
        <mxCell id="75Ea4ljg7frC5PlCdshl-90" value="pu" style="text;strokeColor=none;fillColor=none;align=left;verticalAlign=middle;spacingLeft=4;spacingRight=4;overflow=hidden;points=[[0,0.5],[1,0.5]];portConstraint=eastwest;rotatable=0;whiteSpace=wrap;html=1;" vertex="1" parent="75Ea4ljg7frC5PlCdshl-87">
          <mxGeometry y="150" width="140" height="30" as="geometry" />
        </mxCell>
        <mxCell id="75Ea4ljg7frC5PlCdshl-91" value="detailentre" style="swimlane;fontStyle=0;childLayout=stackLayout;horizontal=1;startSize=30;horizontalStack=0;resizeParent=1;resizeParentMax=0;resizeLast=0;collapsible=1;marginBottom=0;whiteSpace=wrap;html=1;labelBackgroundColor=#FF8000;textShadow=1;" vertex="1" parent="1">
          <mxGeometry x="710" y="900" width="140" height="180" as="geometry" />
        </mxCell>
        <mxCell id="75Ea4ljg7frC5PlCdshl-92" value="iddtletr" style="text;strokeColor=none;fillColor=none;align=left;verticalAlign=middle;spacingLeft=4;spacingRight=4;overflow=hidden;points=[[0,0.5],[1,0.5]];portConstraint=eastwest;rotatable=0;whiteSpace=wrap;html=1;" vertex="1" parent="75Ea4ljg7frC5PlCdshl-91">
          <mxGeometry y="30" width="140" height="30" as="geometry" />
        </mxCell>
        <mxCell id="75Ea4ljg7frC5PlCdshl-93" value="# ref_enteteentre" style="text;strokeColor=none;fillColor=none;align=left;verticalAlign=middle;spacingLeft=4;spacingRight=4;overflow=hidden;points=[[0,0.5],[1,0.5]];portConstraint=eastwest;rotatable=0;whiteSpace=wrap;html=1;" vertex="1" parent="75Ea4ljg7frC5PlCdshl-91">
          <mxGeometry y="60" width="140" height="30" as="geometry" />
        </mxCell>
        <mxCell id="75Ea4ljg7frC5PlCdshl-94" value="# ref_materiel" style="text;strokeColor=none;fillColor=none;align=left;verticalAlign=middle;spacingLeft=4;spacingRight=4;overflow=hidden;points=[[0,0.5],[1,0.5]];portConstraint=eastwest;rotatable=0;whiteSpace=wrap;html=1;" vertex="1" parent="75Ea4ljg7frC5PlCdshl-91">
          <mxGeometry y="90" width="140" height="30" as="geometry" />
        </mxCell>
        <mxCell id="75Ea4ljg7frC5PlCdshl-103" value="qte" style="text;strokeColor=none;fillColor=none;align=left;verticalAlign=middle;spacingLeft=4;spacingRight=4;overflow=hidden;points=[[0,0.5],[1,0.5]];portConstraint=eastwest;rotatable=0;whiteSpace=wrap;html=1;" vertex="1" parent="75Ea4ljg7frC5PlCdshl-91">
          <mxGeometry y="120" width="140" height="30" as="geometry" />
        </mxCell>
        <mxCell id="75Ea4ljg7frC5PlCdshl-104" value="pu" style="text;strokeColor=none;fillColor=none;align=left;verticalAlign=middle;spacingLeft=4;spacingRight=4;overflow=hidden;points=[[0,0.5],[1,0.5]];portConstraint=eastwest;rotatable=0;whiteSpace=wrap;html=1;" vertex="1" parent="75Ea4ljg7frC5PlCdshl-91">
          <mxGeometry y="150" width="140" height="30" as="geometry" />
        </mxCell>
        <mxCell id="75Ea4ljg7frC5PlCdshl-95" value="enteteentre" style="swimlane;fontStyle=0;childLayout=stackLayout;horizontal=1;startSize=30;horizontalStack=0;resizeParent=1;resizeParentMax=0;resizeLast=0;collapsible=1;marginBottom=0;whiteSpace=wrap;html=1;labelBackgroundColor=#B3B3B3;textShadow=1;" vertex="1" parent="1">
          <mxGeometry x="440" y="930" width="140" height="120" as="geometry" />
        </mxCell>
        <mxCell id="75Ea4ljg7frC5PlCdshl-96" value="identetr" style="text;strokeColor=none;fillColor=none;align=left;verticalAlign=middle;spacingLeft=4;spacingRight=4;overflow=hidden;points=[[0,0.5],[1,0.5]];portConstraint=eastwest;rotatable=0;whiteSpace=wrap;html=1;" vertex="1" parent="75Ea4ljg7frC5PlCdshl-95">
          <mxGeometry y="30" width="140" height="30" as="geometry" />
        </mxCell>
        <mxCell id="75Ea4ljg7frC5PlCdshl-97" value="date" style="text;strokeColor=none;fillColor=none;align=left;verticalAlign=middle;spacingLeft=4;spacingRight=4;overflow=hidden;points=[[0,0.5],[1,0.5]];portConstraint=eastwest;rotatable=0;whiteSpace=wrap;html=1;" vertex="1" parent="75Ea4ljg7frC5PlCdshl-95">
          <mxGeometry y="60" width="140" height="30" as="geometry" />
        </mxCell>
        <mxCell id="75Ea4ljg7frC5PlCdshl-98" value="# ref_ffs" style="text;strokeColor=none;fillColor=none;align=left;verticalAlign=middle;spacingLeft=4;spacingRight=4;overflow=hidden;points=[[0,0.5],[1,0.5]];portConstraint=eastwest;rotatable=0;whiteSpace=wrap;html=1;" vertex="1" parent="75Ea4ljg7frC5PlCdshl-95">
          <mxGeometry y="90" width="140" height="30" as="geometry" />
        </mxCell>
        <mxCell id="75Ea4ljg7frC5PlCdshl-105" value="" style="ellipse;whiteSpace=wrap;html=1;" vertex="1" parent="1">
          <mxGeometry x="110" y="838" width="120" height="50" as="geometry" />
        </mxCell>
        <mxCell id="75Ea4ljg7frC5PlCdshl-106" value="" style="ellipse;whiteSpace=wrap;html=1;" vertex="1" parent="1">
          <mxGeometry x="550" y="845" width="100" height="55" as="geometry" />
        </mxCell>
        <mxCell id="75Ea4ljg7frC5PlCdshl-107" value="" style="endArrow=classic;html=1;rounded=0;exitX=0.129;exitY=1.033;exitDx=0;exitDy=0;exitPerimeter=0;entryX=0.321;entryY=-0.011;entryDx=0;entryDy=0;entryPerimeter=0;strokeColor=#FF8000;" edge="1" parent="1" source="75Ea4ljg7frC5PlCdshl-80" target="75Ea4ljg7frC5PlCdshl-87">
          <mxGeometry width="50" height="50" relative="1" as="geometry">
            <mxPoint x="430" y="870" as="sourcePoint" />
            <mxPoint x="480" y="820" as="targetPoint" />
            <Array as="points">
              <mxPoint x="416" y="860" />
              <mxPoint x="230" y="860" />
              <mxPoint x="110" y="860" />
              <mxPoint x="45" y="860" />
            </Array>
          </mxGeometry>
        </mxCell>
        <mxCell id="75Ea4ljg7frC5PlCdshl-108" value="" style="endArrow=classic;html=1;rounded=0;exitX=0.8;exitY=1.1;exitDx=0;exitDy=0;exitPerimeter=0;entryX=0;entryY=0.5;entryDx=0;entryDy=0;strokeColor=#FF8000;" edge="1" parent="1" source="75Ea4ljg7frC5PlCdshl-80" target="75Ea4ljg7frC5PlCdshl-92">
          <mxGeometry width="50" height="50" relative="1" as="geometry">
            <mxPoint x="430" y="870" as="sourcePoint" />
            <mxPoint x="480" y="820" as="targetPoint" />
            <Array as="points">
              <mxPoint x="510" y="870" />
              <mxPoint x="650" y="870" />
              <mxPoint x="650" y="945" />
            </Array>
          </mxGeometry>
        </mxCell>
        <mxCell id="75Ea4ljg7frC5PlCdshl-109" value="" style="ellipse;whiteSpace=wrap;html=1;" vertex="1" parent="1">
          <mxGeometry x="165" y="956" width="90" height="40" as="geometry" />
        </mxCell>
        <mxCell id="75Ea4ljg7frC5PlCdshl-110" value="" style="ellipse;whiteSpace=wrap;html=1;" vertex="1" parent="1">
          <mxGeometry x="610" y="957" width="80" height="40" as="geometry" />
        </mxCell>
        <mxCell id="75Ea4ljg7frC5PlCdshl-111" value="" style="endArrow=classic;html=1;rounded=0;exitX=0;exitY=0.5;exitDx=0;exitDy=0;entryX=1;entryY=0.5;entryDx=0;entryDy=0;strokeColor=#FF9999;" edge="1" parent="1" source="75Ea4ljg7frC5PlCdshl-84" target="75Ea4ljg7frC5PlCdshl-89">
          <mxGeometry width="50" height="50" relative="1" as="geometry">
            <mxPoint x="200" y="1090" as="sourcePoint" />
            <mxPoint x="250" y="1040" as="targetPoint" />
          </mxGeometry>
        </mxCell>
        <mxCell id="75Ea4ljg7frC5PlCdshl-112" value="" style="endArrow=classic;html=1;rounded=0;exitX=1;exitY=0.5;exitDx=0;exitDy=0;entryX=0;entryY=0.5;entryDx=0;entryDy=0;strokeColor=#FF9999;" edge="1" parent="1" source="75Ea4ljg7frC5PlCdshl-96" target="75Ea4ljg7frC5PlCdshl-93">
          <mxGeometry width="50" height="50" relative="1" as="geometry">
            <mxPoint x="610" y="1090" as="sourcePoint" />
            <mxPoint x="660" y="1040" as="targetPoint" />
          </mxGeometry>
        </mxCell>
        <mxCell id="75Ea4ljg7frC5PlCdshl-113" value="payer" style="text;html=1;align=center;verticalAlign=middle;whiteSpace=wrap;rounded=0;" vertex="1" parent="1">
          <mxGeometry x="210" y="320" width="60" height="30" as="geometry" />
        </mxCell>
        <mxCell id="75Ea4ljg7frC5PlCdshl-114" value="affectation" style="text;html=1;align=center;verticalAlign=middle;whiteSpace=wrap;rounded=0;" vertex="1" parent="1">
          <mxGeometry x="547" y="320" width="60" height="30" as="geometry" />
        </mxCell>
        <mxCell id="75Ea4ljg7frC5PlCdshl-115" value="affecter" style="text;html=1;align=center;verticalAlign=middle;whiteSpace=wrap;rounded=0;" vertex="1" parent="1">
          <mxGeometry x="554" y="455" width="60" height="30" as="geometry" />
        </mxCell>
        <mxCell id="75Ea4ljg7frC5PlCdshl-116" value="possede" style="text;html=1;align=center;verticalAlign=middle;whiteSpace=wrap;rounded=0;" vertex="1" parent="1">
          <mxGeometry x="266" y="500" width="60" height="30" as="geometry" />
        </mxCell>
        <mxCell id="75Ea4ljg7frC5PlCdshl-117" value="avoir" style="text;html=1;align=center;verticalAlign=middle;whiteSpace=wrap;rounded=0;" vertex="1" parent="1">
          <mxGeometry x="255" y="707" width="60" height="30" as="geometry" />
        </mxCell>
        <mxCell id="75Ea4ljg7frC5PlCdshl-118" value="avoir" style="text;html=1;align=center;verticalAlign=middle;whiteSpace=wrap;rounded=0;" vertex="1" parent="1">
          <mxGeometry x="145" y="838" width="60" height="30" as="geometry" />
        </mxCell>
        <mxCell id="75Ea4ljg7frC5PlCdshl-119" value="avoir" style="text;html=1;align=center;verticalAlign=middle;whiteSpace=wrap;rounded=0;" vertex="1" parent="1">
          <mxGeometry x="570" y="848" width="60" height="30" as="geometry" />
        </mxCell>
        <mxCell id="75Ea4ljg7frC5PlCdshl-120" value="avoir" style="text;html=1;align=center;verticalAlign=middle;whiteSpace=wrap;rounded=0;" vertex="1" parent="1">
          <mxGeometry x="180" y="955" width="60" height="30" as="geometry" />
        </mxCell>
        <mxCell id="75Ea4ljg7frC5PlCdshl-121" value="avoir" style="text;html=1;align=center;verticalAlign=middle;whiteSpace=wrap;rounded=0;" vertex="1" parent="1">
          <mxGeometry x="617" y="955" width="60" height="30" as="geometry" />
        </mxCell>
        <mxCell id="75Ea4ljg7frC5PlCdshl-122" value="1,n" style="text;html=1;align=center;verticalAlign=middle;whiteSpace=wrap;rounded=0;" vertex="1" parent="1">
          <mxGeometry x="310" y="98" width="38" height="20" as="geometry" />
        </mxCell>
        <mxCell id="75Ea4ljg7frC5PlCdshl-123" value="1,n" style="text;html=1;align=center;verticalAlign=middle;whiteSpace=wrap;rounded=0;" vertex="1" parent="1">
          <mxGeometry x="163" y="50" width="30" height="10" as="geometry" />
        </mxCell>
        <mxCell id="75Ea4ljg7frC5PlCdshl-124" value="1,n" style="text;html=1;align=center;verticalAlign=middle;whiteSpace=wrap;rounded=0;" vertex="1" parent="1">
          <mxGeometry x="650" y="96" width="33" height="20" as="geometry" />
        </mxCell>
        <mxCell id="75Ea4ljg7frC5PlCdshl-125" value="1,1" style="text;html=1;align=center;verticalAlign=middle;whiteSpace=wrap;rounded=0;" vertex="1" parent="1">
          <mxGeometry x="490" y="100" width="30" height="20" as="geometry" />
        </mxCell>
        <mxCell id="75Ea4ljg7frC5PlCdshl-126" value="1,n" style="text;html=1;align=center;verticalAlign=middle;whiteSpace=wrap;rounded=0;" vertex="1" parent="1">
          <mxGeometry x="650" y="200" width="33" height="20" as="geometry" />
        </mxCell>
        <mxCell id="75Ea4ljg7frC5PlCdshl-127" value="1,1" style="text;html=1;align=center;verticalAlign=middle;whiteSpace=wrap;rounded=0;" vertex="1" parent="1">
          <mxGeometry x="502" y="399" width="33" height="20" as="geometry" />
        </mxCell>
        <mxCell id="75Ea4ljg7frC5PlCdshl-128" value="1,n" style="text;html=1;align=center;verticalAlign=middle;whiteSpace=wrap;rounded=0;" vertex="1" parent="1">
          <mxGeometry x="191" y="411" width="40" height="24" as="geometry" />
        </mxCell>
        <mxCell id="75Ea4ljg7frC5PlCdshl-129" value="1,1" style="text;html=1;align=center;verticalAlign=middle;whiteSpace=wrap;rounded=0;" vertex="1" parent="1">
          <mxGeometry x="312" y="199" width="35" height="20" as="geometry" />
        </mxCell>
        <mxCell id="75Ea4ljg7frC5PlCdshl-130" value="1,1" style="text;html=1;align=center;verticalAlign=middle;whiteSpace=wrap;rounded=0;" vertex="1" parent="1">
          <mxGeometry x="175" y="640" width="30" height="20" as="geometry" />
        </mxCell>
        <mxCell id="75Ea4ljg7frC5PlCdshl-131" value="1,1" style="text;html=1;align=center;verticalAlign=middle;whiteSpace=wrap;rounded=0;" vertex="1" parent="1">
          <mxGeometry x="318" y="252" width="30" height="20" as="geometry" />
        </mxCell>
        <mxCell id="75Ea4ljg7frC5PlCdshl-133" value="1.n" style="text;html=1;align=center;verticalAlign=middle;whiteSpace=wrap;rounded=0;" vertex="1" parent="1">
          <mxGeometry x="503" y="450" width="30" height="20" as="geometry" />
        </mxCell>
        <mxCell id="75Ea4ljg7frC5PlCdshl-134" value="1,n" style="text;html=1;align=center;verticalAlign=middle;whiteSpace=wrap;rounded=0;" vertex="1" parent="1">
          <mxGeometry x="636" y="452" width="30" height="20" as="geometry" />
        </mxCell>
        <mxCell id="75Ea4ljg7frC5PlCdshl-135" value="1,n" style="text;html=1;align=center;verticalAlign=middle;whiteSpace=wrap;rounded=0;" vertex="1" parent="1">
          <mxGeometry x="360" y="709" width="35" height="15" as="geometry" />
        </mxCell>
        <mxCell id="75Ea4ljg7frC5PlCdshl-136" value="1,1" style="text;html=1;align=center;verticalAlign=middle;whiteSpace=wrap;rounded=0;" vertex="1" parent="1">
          <mxGeometry x="174" y="716.5" width="29" height="10" as="geometry" />
        </mxCell>
        <mxCell id="75Ea4ljg7frC5PlCdshl-137" value="1,1" style="text;html=1;align=center;verticalAlign=middle;whiteSpace=wrap;rounded=0;" vertex="1" parent="1">
          <mxGeometry x="50" y="880" width="30" height="18" as="geometry" />
        </mxCell>
        <mxCell id="75Ea4ljg7frC5PlCdshl-138" value="1,n" style="text;html=1;align=center;verticalAlign=middle;whiteSpace=wrap;rounded=0;" vertex="1" parent="1">
          <mxGeometry x="380" y="844" width="37" height="15" as="geometry" />
        </mxCell>
        <mxCell id="75Ea4ljg7frC5PlCdshl-139" value="1,1" style="text;html=1;align=center;verticalAlign=middle;whiteSpace=wrap;rounded=0;" vertex="1" parent="1">
          <mxGeometry x="674" y="930" width="28" height="10" as="geometry" />
        </mxCell>
        <mxCell id="75Ea4ljg7frC5PlCdshl-140" value="1,n" style="text;html=1;align=center;verticalAlign=middle;whiteSpace=wrap;rounded=0;" vertex="1" parent="1">
          <mxGeometry x="512" y="856" width="35" height="12" as="geometry" />
        </mxCell>
        <mxCell id="75Ea4ljg7frC5PlCdshl-141" value="1,1" style="text;html=1;align=center;verticalAlign=middle;whiteSpace=wrap;rounded=0;" vertex="1" parent="1">
          <mxGeometry x="260" y="958" width="20" height="16" as="geometry" />
        </mxCell>
        <mxCell id="75Ea4ljg7frC5PlCdshl-142" value="1,1" style="text;html=1;align=center;verticalAlign=middle;whiteSpace=wrap;rounded=0;" vertex="1" parent="1">
          <mxGeometry x="144" y="961" width="21" height="10" as="geometry" />
        </mxCell>
        <mxCell id="75Ea4ljg7frC5PlCdshl-143" value="1,1" style="text;html=1;align=center;verticalAlign=middle;whiteSpace=wrap;rounded=0;" vertex="1" parent="1">
          <mxGeometry x="580" y="962" width="20" height="10" as="geometry" />
        </mxCell>
        <mxCell id="75Ea4ljg7frC5PlCdshl-144" value="1,1" style="text;html=1;align=center;verticalAlign=middle;whiteSpace=wrap;rounded=0;" vertex="1" parent="1">
          <mxGeometry x="690" y="980" width="16" height="10" as="geometry" />
        </mxCell>
      </root>
    </mxGraphModel>
  </diagram>
</mxfile>
